<svg width="800" height="600" xmlns="http://www.w3.org/2000/svg">

 <g>
  <title>Layer 1</title>
  <ellipse stroke-dasharray="5,2,2,2,2,2" stroke="#000" ry="285.50001" rx="377.49999" id="svg_1" cy="300.49999" cx="397.50001" fill="#ffffff"/>
  <g stroke="null">
   <g stroke="null" fill="#000000" transform="translate(0 500) scale(0.1 -0.1)">
    <path stroke="null" d="m1288.96009,3701.91304c-43.40608,-37.67219 -132.84891,-120.30795 -197.30036,-182.28478l-117.06488,-113.01656l195.98502,-181.06954l197.30036,-182.28478l184.147,170.13246l184.147,170.13246l78.92014,0l78.92014,0l-157.84029,-145.82782c-134.16424,-125.16888 -152.57895,-145.82782 -124.95689,-145.82782c24.99138,0 73.6588,37.67219 190.72368,145.82782c140.74092,131.24504 161.7863,145.82782 203.87704,145.82782l46.03675,0l-148.63294,-137.3212c-80.23548,-75.34437 -147.3176,-140.96689 -147.3176,-145.82782c0,-4.86093 13.15336,-8.50662 28.93739,-8.50662c18.4147,0 82.86615,49.82451 188.09301,145.82782c130.21824,120.30795 165.7323,145.82782 197.30036,145.82782c36.8294,0 30.25272,-8.50662 -109.17287,-137.3212c-80.23548,-75.34437 -147.3176,-140.96689 -147.3176,-145.82782c0,-4.86093 13.15336,-8.50662 30.25272,-8.50662c19.73004,0 77.60481,44.96358 186.77767,145.82782c86.81216,80.2053 165.7323,145.82782 177.57032,145.82782c10.52269,0 -26.30671,-42.53311 -82.86615,-94.78808c-55.2441,-51.03974 -101.28085,-98.43378 -101.28085,-103.29471c0,-4.86093 13.15336,-8.50662 30.25272,-8.50662c19.73004,0 65.76679,34.02649 140.74092,103.29471c61.82078,57.1159 119.69555,103.29471 131.53357,103.29471c10.52269,0 -26.30671,-42.53311 -82.86615,-94.78808c-55.2441,-51.03974 -101.28085,-98.43378 -101.28085,-103.29471c0,-4.86093 13.15336,-8.50662 30.25272,-8.50662c19.73004,0 65.76679,34.02649 140.74092,103.29471c65.76679,60.76159 122.32622,103.29471 138.11025,103.29471c18.4147,0 -2.63067,-26.7351 -85.49682,-103.29471c-97.33484,-91.14239 -107.85753,-103.29471 -78.92014,-103.29471c24.99138,0 64.45145,29.16556 144.68693,103.29471l111.80354,103.29471l1609.97094,0c1608.6556,0 1609.97094,0 1586.2949,24.30464c-23.67604,24.30464 -40.77541,24.30464 -1611.28628,24.30464l-1586.2949,0l-103.91152,103.29471c-86.81216,85.06623 -111.80354,103.29471 -144.68693,103.29471c-38.14474,0 -35.51406,-3.6457 72.34347,-103.29471c82.86615,-76.55961 103.91152,-103.29471 85.49682,-103.29471c-15.78403,0 -72.34347,42.53311 -138.11025,103.29471c-80.23548,74.12914 -119.69555,103.29471 -144.68693,103.29471c-28.93739,0 -21.04537,-10.93709 69.71279,-94.78808c55.2441,-51.03974 101.28085,-98.43378 101.28085,-103.29471c0,-26.7351 -44.72141,2.43046 -146.00227,96.00332c-85.49682,78.99007 -121.01089,103.29471 -142.05626,99.64901c-26.30671,-3.6457 -17.09936,-14.58278 69.71279,-97.21855c55.2441,-51.03974 99.96552,-97.21855 99.96552,-100.86424c0,-26.7351 -55.2441,13.36755 -190.72368,139.75166c-117.06488,108.15563 -165.7323,145.82782 -190.72368,145.82782c-27.62205,0 -11.83802,-19.44371 115.74954,-137.3212c80.23548,-75.34437 147.3176,-140.96689 147.3176,-145.82782c0,-4.86093 -15.78403,-8.50662 -36.8294,-8.50662c-28.93739,0 -68.39746,29.16556 -193.35435,145.82782c-131.53357,121.52318 -164.41697,145.82782 -197.30036,145.82782c-36.8294,0 -30.25272,-8.50662 118.38022,-145.82782c146.00227,-136.10597 155.20962,-145.82782 119.69555,-145.82782c-31.56806,0 -68.39746,26.7351 -199.93103,145.82782c-128.9029,116.66226 -168.36297,145.82782 -197.30036,145.82782c-34.19873,0 -24.99138,-12.15232 119.69555,-145.82782l157.84029,-145.82782l-72.34347,0l-72.34347,0l-184.147,170.13246c-101.28085,93.57285 -186.77767,170.13246 -190.72368,170.13246c-3.94601,-1.21523 -42.09074,-32.81126 -85.49682,-70.48345zm236.76043,-136.10597l144.68693,-133.6755l-52.61343,0c-47.35209,0 -61.82078,8.50662 -151.26361,91.14239l-98.65018,91.14239l-111.80354,-103.29471l-111.80354,-104.50994l78.92014,-69.26822c43.40608,-37.67219 96.01951,-82.63577 115.74954,-98.43378l35.51406,-30.3808l92.0735,87.49669c85.49682,81.42053 96.01951,87.49669 147.3176,87.49669l56.55944,-1.21523l-151.26361,-131.24504l-149.94827,-132.46027l-47.35209,34.02649c-24.99138,19.44371 -98.65018,83.851 -164.41697,144.61259l-118.38022,110.5861l157.84029,145.82782c86.81216,80.2053 163.10163,145.82782 170.99365,145.82782c7.89201,0 78.92014,-59.54636 157.84029,-133.6755zm-73.6588,-131.24504c-15.78403,-2.43046 -42.09074,2.43046 -59.19011,10.93709c-38.14474,18.22848 -74.97414,-3.6457 -68.39746,-42.53311c3.94601,-23.08941 11.83802,-25.51987 82.86615,-21.87417l78.92014,3.6457l-59.19011,-54.68543l-57.87477,-55.90066l-73.6588,66.83775l-72.34347,66.83775l72.34347,66.83775l71.02813,66.83775l57.87477,-52.25497c52.61343,-47.39404 53.92877,-51.03974 27.62205,-54.68543z"/>
    <path stroke="null" d="m2117.6216,2970.34347c-155.20962,-29.16556 -288.05853,-100.86424 -382.7627,-209.01988c-85.49682,-94.78808 -115.74954,-174.99339 -115.74954,-301.3775c1.31534,-160.4106 55.2441,-260.05961 269.64383,-500.67552c210.45372,-235.75498 261.75181,-318.39074 261.75181,-426.54638c0,-89.92716 -23.67604,-142.18213 -98.65018,-210.23511c-85.49682,-78.99007 -177.57032,-109.37087 -298.58121,-97.21855c-178.88566,17.01325 -286.74319,123.95365 -286.74319,283.14902c0,132.46027 -74.97414,215.09604 -197.30036,215.09604c-123.64156,-1.21523 -199.93103,-71.69868 -207.82305,-193.22186c-27.62205,-403.45697 427.48411,-713.34109 911.52766,-619.76824c393.28538,76.55961 678.71324,427.76161 612.94645,752.22851c-30.25272,150.68875 -135.47958,311.09935 -347.24863,529.84108c-210.45372,216.31127 -242.02178,365.78479 -94.70417,431.4073c109.17287,47.39404 189.40835,18.22848 268.32849,-96.00332c60.50544,-89.92716 97.33484,-116.66226 168.36297,-123.95365c63.13612,-7.29139 131.53357,24.30464 170.99365,78.99007c61.82078,85.06623 23.67604,223.60266 -94.70417,340.26492c-123.64156,121.52318 -345.9333,182.28478 -539.28765,147.04305z"/>
    <path stroke="null" d="m3377.71324,2967.91301c-97.33484,-29.16556 -97.33484,-27.95033 -464.31351,-981.90733c-378.81669,-984.33779 -372.24001,-958.81793 -294.6352,-1034.1623c98.65018,-96.00332 282.79718,-64.40729 352.50998,60.76159c10.52269,17.01325 135.47958,332.97353 277.53584,699.97354c269.64383,693.89738 278.85118,714.55632 332.77994,781.39408c72.34347,87.49669 222.29174,116.66226 288.05853,55.90066c65.76679,-60.76159 49.98276,-117.87749 -226.23775,-819.06626c-261.75181,-662.30136 -272.2745,-698.75831 -220.9764,-763.1656c32.88339,-42.53311 103.91152,-75.34437 160.47096,-75.34437c67.08212,0 156.52495,44.96358 192.03902,96.00332c15.78403,24.30464 143.3716,339.04968 282.79718,699.97354c139.42559,360.92386 264.38248,678.09937 280.16651,704.83447c69.71279,130.02981 167.04764,195.65233 269.64383,184.71524c72.34347,-7.29139 107.85753,-38.88742 117.06488,-100.86424c6.57668,-49.82451 -13.15336,-104.50994 -284.11252,-793.54639c-59.19011,-149.47352 -111.80354,-303.80796 -118.38022,-343.91061c-36.8294,-246.69206 123.64156,-421.68545 406.43874,-443.55962c178.88566,-13.36755 345.9333,47.39404 486.67422,178.63908c94.70417,88.71192 151.26361,168.91723 217.0304,312.31458c67.08212,143.39736 80.23548,199.29802 59.19011,246.69206c-47.35209,104.50994 -232.81443,111.80133 -284.11252,10.93709c-9.20735,-15.79801 -46.03675,-88.71192 -84.18149,-161.62584c-51.29809,-98.43378 -85.49682,-149.47352 -136.79492,-196.86756c-123.64156,-113.01656 -245.96778,-119.09272 -255.17513,-10.93709c-3.94601,49.82451 0,60.76159 330.14927,887.11925l121.01089,303.80796l0,121.52318c0,111.80133 -2.63067,126.38411 -38.14474,185.93047c-47.35209,78.99007 -107.85753,130.02981 -205.19237,171.34769c-60.50544,26.7351 -90.75817,31.59603 -190.72368,31.59603c-157.84029,-1.21523 -299.89655,-44.96358 -416.96143,-130.02981l-48.66742,-35.24172l-55.2441,55.90066c-85.49682,85.06623 -142.05626,108.15563 -269.64383,108.15563c-98.65018,1.21523 -114.43421,-2.43046 -203.87704,-44.96358l-96.01951,-44.96358l-27.62205,30.3808c-51.29809,58.33113 -157.84029,80.2053 -252.54446,52.25497z"/>
    <path stroke="null" d="m5573.00858,2918.0885c-99.96552,-29.16556 -147.3176,-131.24504 -101.28085,-215.09604c35.51406,-64.40729 73.6588,-72.91391 314.36524,-72.91391l217.0304,0l-105.22686,-281.93379c-101.28085,-269.78147 -215.71506,-576.01989 -391.97005,-1042.66892c-84.18149,-222.38743 -93.38884,-270.9967 -61.82078,-326.89737c31.56806,-55.90066 82.86615,-78.99007 174.93965,-80.2053c138.11025,0 173.62432,37.67219 265.69782,279.50332c239.3911,627.05963 540.60299,1429.11265 540.60299,1440.04974c0,7.29139 85.49682,12.15232 234.12976,12.15232c127.58757,0 255.17513,6.07616 281.48185,12.15232c97.33484,25.51987 151.26361,128.81458 109.17287,211.45034c-42.09074,82.63577 -23.67604,80.2053 -765.5254,78.99007c-427.48411,-1.21523 -683.97458,-6.07616 -711.59663,-14.58278z"/>
    <path stroke="null" d="m5866.32845,661.40297l-184.147,-170.13246l-72.34347,0l-72.34347,0l157.84029,145.82782c148.63294,137.3212 155.20962,145.82782 118.38022,145.82782c-32.88339,0 -65.76679,-24.30464 -197.30036,-145.82782c-124.95689,-116.66226 -164.41697,-145.82782 -193.35435,-145.82782c-21.04537,0 -36.8294,3.6457 -36.8294,8.50662c0,4.86093 67.08212,70.48345 147.3176,145.82782c127.58757,117.87749 143.3716,137.3212 115.74954,137.3212c-24.99138,0 -73.6588,-37.67219 -190.72368,-145.82782c-140.74092,-131.24504 -161.7863,-145.82782 -203.87704,-145.82782l-46.03675,0l157.84029,145.82782c148.63294,137.3212 155.20962,145.82782 118.38022,145.82782c-32.88339,0 -67.08212,-25.51987 -199.93103,-148.25829c-88.12749,-81.42053 -165.7323,-144.61259 -170.99365,-139.75166c-5.26134,4.86093 38.14474,52.25497 94.70417,105.72517c88.12749,81.42053 99.96552,97.21855 73.6588,97.21855c-19.73004,0 -71.02813,-35.24172 -149.94827,-103.29471c-67.08212,-57.1159 -130.21824,-103.29471 -140.74092,-103.29471c-10.52269,0 30.25272,46.17881 92.0735,103.29471c107.85753,99.64901 110.4882,103.29471 72.34347,103.29471c-32.88339,0 -60.50544,-19.44371 -151.26361,-103.29471c-61.82078,-57.1159 -119.69555,-103.29471 -131.53357,-103.29471c-10.52269,0 30.25272,46.17881 92.0735,103.29471c107.85753,99.64901 110.4882,103.29471 72.34347,103.29471c-32.88339,0 -60.50544,-19.44371 -151.26361,-103.29471l-111.80354,-103.29471l-1603.39426,0c-1602.07893,0 -1603.39426,0 -1579.71822,-24.30464c23.67604,-24.30464 40.77541,-24.30464 1609.97094,-24.30464l1586.2949,0l105.22686,-97.21855c74.97414,-69.26822 114.43421,-97.21855 138.11025,-97.21855c28.93739,0 19.73004,10.93709 -72.34347,97.21855c-78.92014,72.91391 -98.65018,97.21855 -78.92014,97.21855c15.78403,0 69.71279,-40.10265 131.53357,-97.21855c78.92014,-72.91391 113.11887,-97.21855 139.42559,-97.21855c31.56806,0 26.30671,8.50662 -69.71279,94.78808c-77.60481,69.26822 -98.65018,94.78808 -82.86615,97.21855c14.46869,3.6457 63.13612,-31.59603 130.21824,-93.57285c86.81216,-78.99007 114.43421,-98.43378 146.00227,-98.43378c38.14474,1.21523 35.51406,3.6457 -68.39746,97.21855c-68.39746,61.97682 -99.96552,97.21855 -85.49682,97.21855c13.15336,0 90.75817,-63.19206 173.62432,-139.75166c111.80354,-103.29471 159.15562,-139.75166 184.147,-139.75166c27.62205,0 10.52269,19.44371 -118.38022,139.75166l-151.26361,139.75166l46.03675,0c42.09074,0 61.82078,-14.58278 197.30036,-139.75166c124.95689,-116.66226 157.84029,-139.75166 190.72368,-139.75166c36.8294,0 31.56806,7.29139 -111.80354,139.75166l-151.26361,139.75166l48.66742,0c38.14474,0 55.2441,-8.50662 89.44283,-44.96358c93.38884,-97.21855 257.8058,-230.89405 295.95054,-239.40067c32.88339,-7.29139 14.46869,14.58278 -118.38022,137.3212l-157.84029,147.04305l78.92014,0l78.92014,0l184.147,-170.13246l184.147,-170.13246l197.30036,182.28478l197.30036,182.28478l-197.30036,182.28478c-107.85753,100.86424 -199.93103,182.28478 -203.87704,182.28478c-3.94601,0 -89.44283,-76.55961 -190.72368,-170.13246zm363.03266,-44.96358l157.84029,-143.39736l-165.7323,-151.90398l-164.41697,-151.90398l-147.3176,137.3212l-148.63294,136.10597l51.29809,0c46.03675,0 61.82078,-9.72185 148.63294,-87.49669l97.33484,-86.28146l111.80354,102.07947l110.4882,100.86424l-102.59619,94.78808c-55.2441,52.25497 -107.85753,94.78808 -114.43421,94.78808c-7.89201,0 -55.2441,-37.67219 -105.22686,-85.06623c-82.86615,-76.55961 -96.01951,-85.06623 -144.68693,-85.06623l-52.61343,0l144.68693,133.6755c78.92014,74.12914 149.94827,133.6755 155.20962,133.6755c6.57668,0 82.86615,-64.40729 168.36297,-142.18213zm-90.75817,-211.45034c-38.14474,-32.81126 -74.97414,-59.54636 -80.23548,-59.54636c-5.26134,0 -32.88339,23.08941 -60.50544,49.82451l-52.61343,49.82451l67.08212,-7.29139c52.61343,-6.07616 71.02813,-3.6457 85.49682,12.15232c11.83802,13.36755 13.15336,24.30464 2.63067,38.88742c-14.46869,20.65894 -27.62205,21.87417 -105.22686,7.29139c-57.87477,-10.93709 -55.2441,7.29139 10.52269,61.97682l55.2441,44.96358l73.6588,-68.05298l73.6588,-69.26822l-69.71279,-60.76159z"/>
   </g>
  </g>
 </g>
</svg>